<?xml version="1.0" encoding="UTF-8" standalone="no"?>
<svg width="298px" height="298px" viewBox="0 0 298 298" version="1.1" xmlns="http://www.w3.org/2000/svg" xmlns:xlink="http://www.w3.org/1999/xlink" xmlns:sketch="http://www.bohemiancoding.com/sketch/ns">
    <!-- Generator: Sketch 3.2.2 (9983) - http://www.bohemiancoding.com/sketch -->
    <title>Shape + Shape</title>
    <desc>Created with Sketch.</desc>
    <defs></defs>
    <g id="Page-1" stroke="none" stroke-width="1" fill="none" fill-rule="evenodd" sketch:type="MSPage">
        <g id="codepen" sketch:type="MSLayerGroup" fill="#000000">
            <g id="Shape-+-Shape" sketch:type="MSShapeGroup">
                <path d="M148.879339,0 C66.6545455,0 0,66.6942149 0,148.879339 C0,231.064463 66.6545455,297.639669 148.760331,297.756198 C230.982645,297.756198 297.63719,231.104132 297.63719,148.879339 C297.63719,66.6545455 231.101653,0 148.760331,0 L148.879339,0 Z M148.879339,273.304959 C80.268595,273.304959 24.4512397,217.485124 24.4512397,148.87686 C24.4512397,80.268595 80.268595,24.5454545 148.760331,24.5454545 C217.368595,24.5454545 273.22314,80.3305785 273.22314,148.973554 C273.22314,217.616529 217.487603,273.22314 148.760331,273.304959 L148.879339,273.304959 Z" id="Shape"></path>
                <path d="M240.860331,119.799174 C240.842975,119.682645 240.813223,119.571074 240.795868,119.454545 C240.756198,119.231405 240.716529,119.008264 240.657025,118.790083 C240.622314,118.658678 240.575207,118.532231 240.533058,118.408264 C240.471074,118.214876 240.406612,118.021488 240.329752,117.833058 C240.277686,117.701653 240.213223,117.572727 240.153719,117.446281 C240.071901,117.267769 239.985124,117.091736 239.88595,116.92314 C239.81405,116.796694 239.734711,116.675207 239.660331,116.556198 C239.553719,116.392562 239.444628,116.231405 239.32562,116.077686 C239.238843,115.961157 239.147107,115.844628 239.055372,115.733058 C238.928926,115.586777 238.797521,115.442975 238.661157,115.306612 C238.557025,115.2 238.455372,115.093388 238.346281,114.996694 C238.2,114.865289 238.05124,114.738843 237.897521,114.619835 C237.778512,114.528099 237.661983,114.436364 237.538017,114.349587 C237.490909,114.319835 237.45124,114.282645 237.406612,114.252893 L153.265289,58.2644628 C150.607438,56.4917355 147.146281,56.4917355 144.48843,58.2644628 L60.3471074,114.250413 C60.3024793,114.280165 60.2628099,114.317355 60.2157025,114.347107 C60.0917355,114.433884 59.9752066,114.52562 59.8586777,114.595041 C59.7049587,114.716529 59.553719,114.842975 59.4099174,114.971901 C59.2983471,115.068595 59.1966942,115.175207 59.092562,115.281818 C58.953719,115.418182 58.8247934,115.561983 58.7008264,115.777686 C58.6066116,115.889256 58.514876,116.005785 58.4280992,116.122314 C58.3115702,116.276033 58.2,116.43719 58.0958678,116.600826 C58.0165289,116.722314 57.9421488,116.843802 57.8677686,116.84876 C57.7710744,117.017355 57.6842975,117.193388 57.6,117.371901 C57.5404959,117.498347 57.4760331,117.629752 57.4239669,117.758678 C57.3471074,117.947107 57.2826446,118.140496 57.2206612,118.254545 C57.1785124,118.380992 57.1338843,118.507438 57.0966942,118.636364 C57.0396694,118.854545 57,119.077686 56.9578512,119.300826 C56.9380165,119.417355 56.9082645,119.528926 56.8958678,119.54876 C56.8487603,119.88843 56.8239669,120.230579 56.8239669,120.580165 L56.8239669,176.92562 L56.8239669,177.961983 C56.838843,177.961983 56.8239669,178.209917 56.8239669,178.209917 C56.8661157,178.457851 56.8239669,178.705785 57.0719008,178.87438 C57.1090909,179.122314 57.0719008,179.122314 57.3198347,179.256198 C57.3818182,179.504132 57.5677686,179.752066 57.5677686,179.752066 C57.6198347,180 57.5677686,180 57.8157025,180.133884 C57.9,180.381818 58.0636364,180.381818 58.0636364,180.661983 C58.1355372,180.661983 58.3115702,180.909917 58.3115702,180.909917 C58.4157025,181.157851 58.5595041,181.157851 58.5595041,181.38843 C58.646281,181.38843 58.807438,181.636364 58.807438,181.733058 C58.931405,181.980992 59.0553719,181.980992 59.3033058,182.228926 C59.407438,182.228926 59.5512397,182.47686 59.5512397,182.538843 C59.6950413,182.786777 59.7991736,182.786777 60.0471074,182.915702 C60.1636364,182.915702 60.2950413,183.163636 60.2950413,183.163636 C60.3421488,183.163636 60.2950413,183.163636 60.5429752,183.260331 L144.48843,239.603306 C145.817355,240.595041 147.463636,240.842975 148.95124,240.934711 C150.478512,240.934711 152.008264,240.48843 153.339669,239.603306 L237.483471,183.508264 C237.528099,183.478512 237.567769,183.441322 237.614876,183.41157 C237.738843,183.324793 237.855372,183.233058 237.97438,183.141322 C238.128099,183.019835 238.27686,182.893388 238.42314,182.764463 C238.532231,182.667769 238.633884,182.561157 238.738017,182.454545 C238.87686,182.318182 239.005785,182.17438 239.132231,182.028099 C239.223967,181.916529 239.315702,181.804959 239.402479,181.683471 C239.521488,181.529752 239.630579,181.368595 239.73719,181.204959 C239.81157,181.083471 239.890909,180.961983 239.96281,180.842975 C240.061983,180.669421 240.14876,180.493388 240.230579,180.314876 C240.290083,180.18843 240.354545,180.061983 240.406612,179.933058 C240.483471,179.739669 240.547934,179.546281 240.609917,179.352893 C240.652066,179.226446 240.699174,179.1 240.733884,178.971074 C240.790909,178.752893 240.833058,178.529752 240.872727,178.306612 C240.892562,178.195041 240.922314,178.078512 240.93719,177.966942 C240.981818,177.622314 241.006612,177.280165 241.006612,176.930579 L241.006612,120.830579 C240.932231,120.495868 240.991736,120.247934 240.743802,119.799174 L240.860331,119.799174 Z M156.78843,79.5198347 L218.77438,120.840496 L191.087603,139.363636 L156.78843,116.419835 L156.78843,79.5198347 L156.78843,79.5198347 Z M140.965289,79.5867769 L140.965289,116.486777 L106.668595,139.363636 L78.9793388,120.840496 L140.965289,79.5198347 L140.965289,79.5867769 Z M72.6471074,135.639669 L92.4396694,148.879339 L72.6471074,162.119008 L72.6471074,135.639669 L72.6471074,135.639669 Z M140.965289,218.236364 L78.9793388,177.024793 L106.668595,158.506612 L140.965289,181.445455 L140.965289,218.236364 L140.965289,218.236364 Z M148.879339,167.595868 L120.897521,148.879339 L148.879339,130.16281 L176.858678,148.879339 L148.879339,167.595868 L148.879339,167.595868 Z M156.78843,218.236364 L156.78843,181.338843 L191.087603,158.4 L218.77438,176.918182 L156.78843,218.236364 L156.78843,218.236364 Z M225.109091,162.119008 L205.319008,148.879339 L225.109091,135.639669 L225.109091,162.119008 L225.109091,162.119008 Z" id="Shape"></path>
            </g>
        </g>
    </g>
</svg>