<?xml version="1.0" encoding="UTF-8" standalone="no"?>
<svg width="366px" height="137px" viewBox="0 0 366 137" version="1.1" xmlns="http://www.w3.org/2000/svg" xmlns:xlink="http://www.w3.org/1999/xlink" xmlns:sketch="http://www.bohemiancoding.com/sketch/ns">
    <!-- Generator: Sketch 3.2.2 (9983) - http://www.bohemiancoding.com/sketch -->
    <title>Group</title>
    <desc>Created with Sketch.</desc>
    <defs></defs>
    <g id="Page-1" stroke="none" stroke-width="1" fill="none" fill-rule="evenodd" sketch:type="MSPage">
        <g id="Group" sketch:type="MSLayerGroup">
            <rect id="Rectangle-1" fill="#D8D8D8" sketch:type="MSShapeGroup" x="0" y="0" width="173" height="137"></rect>
            <rect id="Rectangle-3" fill="#AFAFAF" sketch:type="MSShapeGroup" x="0" y="0" width="173" height="41"></rect>
            <rect id="Rectangle-2" fill="#797979" sketch:type="MSShapeGroup" x="0" y="0" width="37" height="137"></rect>
            <circle id="Oval-4" opacity="0.534165112" fill="#FFFFFF" sketch:type="MSShapeGroup" cx="91" cy="23" r="8"></circle>
            <rect id="Rectangle-4" fill="#628676" sketch:type="MSShapeGroup" x="218" y="45" width="148" height="52" rx="8"></rect>
            <circle id="Oval-5" opacity="0.534165112" fill="#FFFFFF" sketch:type="MSShapeGroup" cx="234" cy="70" r="8"></circle>
            <path d="M233.5,69.5 L90.5,22.5" id="Line" stroke="#979797" stroke-linecap="square" sketch:type="MSShapeGroup"></path>
            <path d="M264.14,63.434 L270.486,63.434 C271.398005,63.434 272.157997,63.5258324 272.766,63.7095 C273.374003,63.8931676 273.858498,64.1433318 274.2195,64.46 C274.580502,64.7766683 274.836999,65.1471645 274.989,65.5715 C275.141001,65.9958355 275.217,66.442331 275.217,66.911 C275.217,67.5316698 275.084001,68.0858309 274.818,68.5735 C274.551999,69.0611691 274.121336,69.469665 273.526,69.799 C274.906674,70.4196698 275.597,71.4899924 275.597,73.01 C275.597,73.5420027 275.508334,74.0486643 275.331,74.53 C275.153666,75.0113357 274.856002,75.4356648 274.438,75.803 C274.019998,76.1703352 273.475337,76.4616656 272.804,76.677 C272.132663,76.8923344 271.303005,77 270.315,77 L264.14,77 L264.14,63.434 Z M268.073,68.583 L269.764,68.583 C270.296003,68.583 270.656999,68.4943342 270.847,68.317 C271.037001,68.1396658 271.132,67.886335 271.132,67.557 C271.132,67.227665 271.037001,66.9743342 270.847,66.797 C270.656999,66.6196658 270.296003,66.531 269.764,66.531 L268.073,66.531 L268.073,68.583 Z M268.073,73.903 L269.859,73.903 C270.505003,73.903 270.941999,73.7953344 271.17,73.58 C271.398001,73.3646656 271.512,73.0606686 271.512,72.668 C271.512,72.2626646 271.398001,71.9523344 271.17,71.737 C270.941999,71.5216656 270.505003,71.414 269.859,71.414 L268.073,71.414 L268.073,73.903 Z M287.016,77 L283.064,77 L283.064,75.955 C282.734665,76.3603354 282.345169,76.6864988 281.8955,76.9335 C281.445831,77.1805012 280.898003,77.304 280.252,77.304 C279.251328,77.304 278.462836,76.9936698 277.8865,76.373 C277.310164,75.7523302 277.022,74.8720057 277.022,73.732 L277.022,66.968 L281.088,66.968 L281.088,73.048 C281.088,73.377335 281.154499,73.6148326 281.2875,73.7605 C281.420501,73.9061674 281.607332,73.979 281.848,73.979 C282.278669,73.979 282.588999,73.8333348 282.779,73.542 C282.829667,73.4786663 282.870833,73.3931672 282.9025,73.2855 C282.934167,73.1778328 282.95,73.0353342 282.95,72.858 L282.95,66.968 L287.016,66.968 L287.016,77 Z M289.885,70.141 L288.251,70.141 L288.251,66.968 L289.885,66.968 L289.885,64.365 L293.951,64.365 L293.951,66.968 L296.022,66.968 L296.022,70.141 L293.951,70.141 L293.951,72.858 C293.951,73.2760021 294.045999,73.554666 294.236,73.694 C294.426001,73.833334 294.679332,73.903 294.996,73.903 C295.274668,73.903 295.578665,73.8650004 295.908,73.789 L296.402,76.734 C295.983998,76.873334 295.569169,76.9809996 295.1575,77.057 C294.745831,77.1330004 294.274003,77.171 293.742,77.171 C293.032663,77.171 292.431002,77.0918341 291.937,76.9335 C291.442998,76.7751659 291.044002,76.5281683 290.74,76.1925 C290.435998,75.8568317 290.217501,75.4325026 290.0845,74.9195 C289.951499,74.4064974 289.885,73.7953369 289.885,73.086 L289.885,70.141 Z M298.606,70.141 L296.972,70.141 L296.972,66.968 L298.606,66.968 L298.606,64.365 L302.672,64.365 L302.672,66.968 L304.743,66.968 L304.743,70.141 L302.672,70.141 L302.672,72.858 C302.672,73.2760021 302.766999,73.554666 302.957,73.694 C303.147001,73.833334 303.400332,73.903 303.717,73.903 C303.995668,73.903 304.299665,73.8650004 304.629,73.789 L305.123,76.734 C304.704998,76.873334 304.290169,76.9809996 303.8785,77.057 C303.466831,77.1330004 302.995003,77.171 302.463,77.171 C301.753663,77.171 301.152002,77.0918341 300.658,76.9335 C300.163998,76.7751659 299.765002,76.5281683 299.461,76.1925 C299.156998,75.8568317 298.938501,75.4325026 298.8055,74.9195 C298.672499,74.4064974 298.606,73.7953369 298.606,73.086 L298.606,70.141 Z M311.127,77.304 C309.391658,77.304 308.083838,76.8385047 307.2035,75.9075 C306.323162,74.9764953 305.883,73.6813416 305.883,72.022 C305.883,70.3373249 306.345329,69.0231714 307.27,68.0795 C308.194671,67.1358286 309.511991,66.664 311.222,66.664 C312.944675,66.664 314.249329,67.1294953 315.136,68.0605 C316.022671,68.9915047 316.466,70.2866584 316.466,71.946 C316.466,73.6306751 316.006838,74.9448286 315.0885,75.8885 C314.170162,76.8321714 312.849675,77.304 311.127,77.304 L311.127,77.304 Z M309.949,71.984 C309.949,72.3893354 309.9775,72.7249987 310.0345,72.991 C310.0915,73.2570013 310.176999,73.4691659 310.291,73.6275 C310.405001,73.7858341 310.537999,73.8966664 310.69,73.96 C310.842001,74.0233336 311.000333,74.055 311.165,74.055 C311.342334,74.055 311.506999,74.0233336 311.659,73.96 C311.811001,73.8966664 311.943999,73.7858341 312.058,73.6275 C312.172001,73.4691659 312.2575,73.2570013 312.3145,72.991 C312.3715,72.7249987 312.4,72.3893354 312.4,71.984 C312.4,71.5786646 312.3715,71.2430013 312.3145,70.977 C312.2575,70.7109987 312.172001,70.4988341 312.058,70.3405 C311.943999,70.1821659 311.811001,70.0713336 311.659,70.008 C311.506999,69.9446664 311.342334,69.913 311.165,69.913 C311.000333,69.913 310.842001,69.9446664 310.69,70.008 C310.537999,70.0713336 310.405001,70.1821659 310.291,70.3405 C310.176999,70.4988341 310.0915,70.7109987 310.0345,70.977 C309.9775,71.2430013 309.949,71.5786646 309.949,71.984 L309.949,71.984 Z M317.986,66.968 L321.938,66.968 L321.938,68.013 C322.280002,67.5949979 322.682164,67.2656679 323.1445,67.025 C323.606836,66.7843321 324.154663,66.664 324.788,66.664 C325.814005,66.664 326.61833,66.9743302 327.201,67.595 C327.78367,68.2156698 328.075,69.0959943 328.075,70.236 L328.075,77 L324.009,77 L324.009,70.977 C324.009,70.6223316 323.939334,70.3690008 323.8,70.217 C323.660666,70.0649992 323.464335,69.989 323.211,69.989 C322.995666,69.989 322.802501,70.0269996 322.6315,70.103 C322.460499,70.1790004 322.324334,70.2929992 322.223,70.445 C322.172333,70.5210004 322.131167,70.6128328 322.0995,70.7205 C322.067833,70.8281672 322.052,70.9769991 322.052,71.167 L322.052,77 L317.986,77 L317.986,66.968 Z" id="Button" fill="#FFFFFF" sketch:type="MSShapeGroup"></path>
        </g>
    </g>
</svg>