<?xml version="1.0" encoding="UTF-8" standalone="no"?>
<svg width="590px" height="460px" viewBox="0 0 590 460" version="1.1" xmlns="http://www.w3.org/2000/svg" xmlns:xlink="http://www.w3.org/1999/xlink" xmlns:sketch="http://www.bohemiancoding.com/sketch/ns">
    <!-- Generator: Sketch 3.2.2 (9983) - http://www.bohemiancoding.com/sketch -->
    <title>Fill-1</title>
    <desc>Created with Sketch.</desc>
    <defs>
        <filter x="-50%" y="-50%" width="200%" height="200%" filterUnits="objectBoundingBox" id="filter-1">
            <feOffset dx="4" dy="4" in="SourceAlpha" result="shadowOffsetOuter1"></feOffset>
            <feGaussianBlur stdDeviation="4.5" in="shadowOffsetOuter1" result="shadowBlurOuter1"></feGaussianBlur>
            <feColorMatrix values="0 0 0 0 0   0 0 0 0 0   0 0 0 0 0  0 0 0 0.232501132 0" in="shadowBlurOuter1" type="matrix" result="shadowMatrixOuter1"></feColorMatrix>
            <feMerge>
                <feMergeNode in="shadowMatrixOuter1"></feMergeNode>
                <feMergeNode in="SourceGraphic"></feMergeNode>
            </feMerge>
        </filter>
    </defs>
    <g id="Page-1" stroke="none" stroke-width="1" fill="none" fill-rule="evenodd" sketch:type="MSPage">
        <path d="M408.313,330.681 C406.575,329.444 406.864,325.446 412.58,312.994 C414.824,308.105 419.944,299.874 428.845,292.008 C429.876,295.243 430.505,298.345 430.487,301.233 C430.372,320.499 416.626,327.694 408.313,330.681 L408.313,330.681 L408.313,330.681 Z M335.145,347.36 C332.815,348.579 330.679,349.345 329.686,348.754 C328.958,348.319 330.647,346.714 330.647,346.714 C330.647,346.714 342.528,333.934 347.207,328.114 C349.929,324.73 353.085,320.713 356.524,316.22 C356.552,316.669 356.567,317.114 356.567,317.554 C356.532,332.866 341.741,343.204 335.145,347.36 L335.145,347.36 L335.145,347.36 Z M240.167,302.042 C234.671,315.441 223.168,349.72 216.167,347.883 C210.157,346.306 206.497,320.248 214.967,294.603 C219.23,281.694 228.337,266.269 233.687,260.282 C242.3,250.648 251.783,247.497 254.087,251.403 C257.024,256.38 243.613,293.643 240.167,302.042 L240.167,302.042 L240.167,302.042 Z M125.207,380.194 C109.427,397.409 87.381,403.915 77.927,398.435 C67.719,392.516 71.762,367.172 91.127,348.904 C102.93,337.771 118.167,327.517 128.275,321.201 C130.575,319.817 133.955,317.784 138.062,315.323 C138.743,314.935 139.127,314.72 139.127,314.72 L139.112,314.694 C139.905,314.22 140.717,313.733 141.556,313.232 C148.602,339.234 141.77,362.126 125.207,380.194 L125.207,380.194 L125.207,380.194 Z M492.417,256.396 C473.272,256.497 456.69,261.093 442.79,267.944 C437.706,257.798 432.561,248.872 431.697,242.235 C430.688,234.487 429.519,229.865 430.737,220.635 C431.956,211.405 437.296,198.335 437.218,197.356 C437.14,196.377 436.02,191.675 424.978,191.595 C413.935,191.516 404.489,193.719 403.378,196.635 C402.266,199.551 400.14,206.113 398.817,212.955 C396.883,222.968 376.77,258.678 365.35,277.36 C361.615,270.069 358.439,263.64 357.777,258.556 C356.769,250.808 355.599,246.186 356.817,236.955 C358.036,227.726 363.376,214.654 363.298,213.675 C363.22,212.696 362.101,207.995 351.058,207.915 C340.015,207.836 330.569,210.039 329.458,212.955 C328.346,215.871 327.159,222.684 324.897,229.275 C322.635,235.867 295.899,295.436 288.897,310.876 C285.329,318.743 282.224,325.063 280.032,329.38 C280.026,329.369 280.018,329.356 280.018,329.356 C280.018,329.356 279.883,329.643 279.65,330.128 C277.774,333.802 276.657,335.835 276.657,335.835 C276.657,335.835 276.669,335.863 276.69,335.911 C275.202,338.609 273.607,341.115 272.817,341.115 C272.265,341.115 271.16,333.933 273.058,324.075 C277.036,303.411 286.593,271.185 286.498,270.075 C286.448,269.506 288.274,263.891 280.257,260.955 C272.464,258.103 269.689,262.86 268.978,262.875 C268.289,262.89 267.777,264.556 267.777,264.556 C267.777,264.556 276.459,228.316 251.217,228.316 C235.436,228.316 213.569,245.579 202.797,261.227 C195.999,264.935 181.452,272.876 166.018,281.356 C160.09,284.612 154.041,287.941 148.305,291.101 C147.915,290.669 147.526,290.236 147.125,289.808 C116.518,257.153 59.937,234.056 62.337,190.155 C63.21,174.195 68.758,132.171 171.058,81.195 C254.858,39.437 321.944,50.928 333.538,76.395 C350.1,112.778 297.684,180.4 210.657,190.155 C177.499,193.872 160.04,181.022 155.697,176.235 C151.126,171.197 150.444,170.97 148.737,171.915 C145.957,173.456 147.719,177.904 148.737,180.555 C151.336,187.318 161.998,199.31 180.177,205.275 C196.169,210.523 235.099,213.406 282.177,195.195 C334.907,174.799 376.081,118.061 363.987,70.635 C351.688,22.4 271.711,6.543 196.018,33.435 C150.969,49.439 102.202,74.558 67.138,107.355 C25.446,146.352 18.798,180.293 21.537,194.475 C31.271,244.866 100.726,277.681 128.539,302.001 C127.166,302.758 125.879,303.469 124.708,304.115 C110.764,311.013 57.82,338.72 44.577,367.995 C29.556,401.202 46.969,425.027 58.497,428.235 C94.216,438.174 130.869,420.297 150.567,390.916 C170.261,361.542 167.856,323.294 158.817,305.835 C158.705,305.618 158.581,305.406 158.466,305.191 C162.066,303.06 165.738,300.893 169.377,298.756 C176.474,294.589 183.44,290.701 189.486,287.411 C186.104,296.68 183.626,307.79 182.337,323.835 C180.823,342.685 188.548,367.05 198.657,376.636 C203.108,380.856 208.463,380.955 211.857,380.955 C223.62,380.955 228.988,371.169 234.897,359.595 C242.146,345.4 248.577,328.875 248.577,328.875 C248.577,328.875 240.505,373.515 262.498,373.515 C270.511,373.515 278.572,363.124 282.162,357.826 C282.172,357.884 282.177,357.915 282.177,357.915 C282.177,357.915 282.386,357.57 282.794,356.878 C283.626,355.606 284.097,354.796 284.097,354.796 C284.097,354.796 284.113,354.712 284.139,354.566 C287.36,348.973 294.504,336.222 305.218,315.195 C319.06,288.028 332.337,253.995 332.337,253.995 C332.337,253.995 333.572,262.316 337.617,276.075 C339.997,284.171 345.053,293.12 349.042,301.702 C345.831,306.157 343.857,308.716 343.857,308.716 C343.857,308.716 343.876,308.763 343.911,308.849 C341.345,312.255 338.468,315.931 335.458,319.515 C324.533,332.527 311.52,347.386 309.777,351.675 C307.725,356.728 308.21,360.445 312.177,363.435 C315.075,365.619 320.234,365.958 325.617,365.595 C335.435,364.935 342.343,362.5 345.751,361.017 C351.064,359.138 357.251,356.183 363.058,351.915 C373.775,344.036 380.239,332.765 379.618,317.835 C379.274,309.607 376.65,301.452 373.331,293.753 C374.304,292.355 375.279,290.944 376.257,289.515 C393.152,264.816 406.257,237.675 406.257,237.675 C406.257,237.675 407.492,245.995 411.538,259.755 C413.585,266.72 417.624,274.317 421.256,281.769 C405.37,294.677 395.518,309.675 392.097,319.515 C385.772,337.712 390.726,345.958 400.018,347.835 C404.227,348.686 410.171,346.757 414.643,344.864 C420.207,343.019 426.893,339.946 433.138,335.356 C443.855,327.477 454.159,316.444 453.538,301.515 C453.254,294.718 451.411,287.972 448.91,281.491 C462.376,275.882 479.811,272.763 502.018,275.356 C549.658,280.919 559.004,310.665 557.218,323.115 C555.431,335.566 545.438,342.409 542.097,344.476 C538.757,346.542 537.737,347.259 538.018,348.796 C538.424,351.03 539.969,350.944 542.817,350.464 C546.739,349.802 567.834,340.337 568.737,317.356 C569.884,288.18 541.931,256.132 492.417,256.396 L492.417,256.396 L492.417,256.396 Z" id="Fill-1" fill="#FFFFFF" filter="url(#filter-1)" sketch:type="MSShapeGroup"></path>
    </g>
</svg>