<?xml version="1.0" encoding="UTF-8" standalone="no"?>
<svg width="301px" height="112px" viewBox="0 0 301 112" version="1.1" xmlns="http://www.w3.org/2000/svg" xmlns:xlink="http://www.w3.org/1999/xlink" xmlns:sketch="http://www.bohemiancoding.com/sketch/ns">
    <!-- Generator: Sketch 3.2.2 (9983) - http://www.bohemiancoding.com/sketch -->
    <title>sassmeister</title>
    <desc>Created with Sketch.</desc>
    <defs></defs>
    <g id="Page-1" stroke="none" stroke-width="1" fill="none" fill-rule="evenodd" sketch:type="MSPage">
        <g id="sassmeister" sketch:type="MSLayerGroup" fill="#000000">
            <path d="M91.7131975,12.542526 C94.6878674,18.1548051 91.5820635,29.1534821 88.1139158,33.6954318 C81.8781518,41.8549558 77.3367764,46.6540625 65.3069626,50.0144798 C43.4973176,56.106322 36.440241,46.9042694 35.2979953,44.8782888 C34.4111157,43.3040706 34.5836604,41.5943236 35.598223,41.8549558 C36.6127856,42.1155879 39.3424421,46.0841469 45.8025142,46.9911468 C52.2591354,47.8981467 66.5354806,44.3604996 74.9107984,37.3199563 C88.8662106,25.5915093 84.6906298,17.1157516 84.2144065,15.8647172 C82.8927144,12.396572 74.7693118,8.30290959 61.707681,10.4227178 C48.6460502,12.542526 43.0763086,16.3234298 38.3002724,18.5857169 C15.1930915,29.5357425 10.9933544,43.9678138 11.5938099,47.8981467 C12.4220242,53.3262457 14.6651048,57.8716705 19.4204357,61.1973368 C24.1757665,64.5230031 34.7113435,74.1802933 34.6975399,74.1907186 C34.7734595,74.2150442 46.4823402,67.761792 48.7806351,66.6358611 C48.7806351,66.6358611 53.5463186,60.5926702 57.8047208,58.4763371 C65.8211457,55.12287 67.784704,59.9880036 67.1083289,66.6358611 C67.1635432,66.559409 68.9407532,65.3153249 70.5557712,66.2814014 C72.8023027,67.6262633 70.7041596,72.0743855 70.3556194,73.2767685 C70.0899006,74.1837684 68.3092397,80.5675186 68.009012,83.5074493 C67.7087843,86.4473801 67.8675254,87.3856558 68.009012,87.7887669 C68.0504227,87.830468 72.0534589,80.7655991 75.345611,73.2767685 C79.5626025,63.6855051 83.2964689,53.1246902 83.3137234,53.0378128 C83.7002234,52.02656 94.1150191,49.7364722 91.7166484,54.8518126 C90.9332956,57.378207 90.2051571,58.6883179 90.5157375,63.6160032 C90.8263179,68.5436885 92.8381886,70.4758416 92.9175592,70.566194 C92.9589699,70.4758416 99.3603768,59.9914787 101.020256,55.7588125 C101.568948,54.3583491 103.114949,48.6974186 103.12185,48.5062884 C103.425529,48.092752 105.364931,47.2309284 107.994512,47.2309284 C110.624092,47.2309284 111.69732,47.946798 111.825003,48.5062884 C112.107976,48.7808209 110.876007,52.5825753 110.624092,53.3401461 C110.196181,55.3348509 109.298949,58.4763371 112.125231,65.4265279 C113.802365,63.4387734 122.722924,51.6095486 132.230135,53.0378128 C138.831693,54.028215 141.181752,59.6474443 141.233515,59.9880036 C143.928663,60.1548082 145.861163,61.3224403 146.934391,63.6125281 C151.099619,61.1104594 154.471141,59.9880036 157.138682,59.9880036 C159.129847,59.9880036 163.564245,60.7838005 164.033566,66.0624704 C164.502888,71.3411403 164.340696,82.0479093 164.340696,82.0479093 L168.240205,82.0479093 C168.87517,82.0479093 169.182299,85.5577556 167.939978,85.3735756 L156.538226,85.3735756 C155.527115,85.3735756 155.958476,82.5761238 156.538226,82.0479093 C157.117976,81.5196948 159.540503,82.0479093 159.540503,80.8385761 C159.540503,80.8385761 159.840731,69.2734586 159.129847,67.2544281 C158.418963,65.2353977 157.487222,64.2206698 155.340766,64.2206698 C153.19086,64.2206698 151.120324,65.3709264 148.43898,67.5463361 L148.43898,82.0513844 L152.338489,82.0513844 C152.831967,82.0513844 153.504891,85.1476944 152.038262,85.3770507 L140.63651,85.3770507 C139.929077,85.3770507 139.967037,82.43712 140.63651,82.0513844 C141.305984,81.6656488 143.587024,81.6204725 143.638788,80.8420512 C143.638788,80.8420512 143.849292,69.0580026 143.038332,66.9416695 C142.227372,64.8253364 141.236966,64.2206698 139.439051,64.2206698 C137.637684,64.2206698 135.218608,65.3709264 132.537264,67.5463361 L132.537264,82.0513844 L136.737001,82.0513844 C137.6998,82.0513844 137.42718,85.6098821 136.436773,85.3770507 L123.834111,85.3770507 C122.339875,85.3770507 123.233656,82.3467675 123.623607,82.0513844 C123.727134,81.8116028 128.033848,82.0513844 127.733621,80.8420512 L127.733621,64.2206698 L123.233656,64.2206698 C120.479843,61.6525743 123.834111,59.9914787 126.536161,59.9914787 C129.23821,59.9914787 131.219023,59.6891454 131.636581,60.293812 C132.054139,60.8984786 131.936809,63.0148117 131.936809,63.0148117 C134.497371,61.6664747 136.77151,60.7073484 138.838595,60.293812 C138.065595,58.8099463 135.825965,56.6692875 131.036126,56.6692875 C126.846741,56.6692875 122.933428,57.6944406 113.930048,68.453336 C114.389017,69.6140179 117.153182,73.4505232 116.269754,78.6840169 C115.386325,83.9175106 107.625266,88.4003837 106.900578,88.4003837 C106.175891,88.4003837 102.69394,90.7356478 100.423252,88.4003837 C98.1525642,86.0651196 100.281765,81.34594 100.806301,80.2825608 C101.327386,79.2191816 107.283628,70.2951366 107.325038,70.2673358 C105.97919,68.453336 104.20198,61.3606663 103.725757,59.6926205 C103.760266,59.6995707 101.720788,63.755007 99.5260197,67.5498112 C97.3450552,71.3168147 95.0088005,74.8301361 95.0260549,74.8023353 C94.9949969,74.9274388 97.3899168,80.2408597 96.2269658,84.7758592 C94.7568853,89.6097169 89.3286303,93.182115 83.0238484,94.1447164 C76.7190665,95.1073178 77.7888434,91.1908853 78.2236559,90.5201919 C78.4893747,89.7104947 80.1354507,87.8165677 83.6657145,83.5178746 C88.1277194,78.0863005 88.5763355,77.0993734 88.4279471,76.9221435 C88.5763355,76.9881704 88.0517998,76.1159214 87.527264,75.1081437 C85.4463754,71.111784 84.2765226,65.1450452 83.9279824,64.2310951 C83.9970002,64.1476928 75.1109502,85.1928706 71.6255481,90.5201919 C67.3567932,97.042946 66.3318779,96.9942946 63.4296767,95.8892143 C60.5274755,94.784134 61.676623,84.4352998 61.7214846,84.477001 C61.5696453,84.4492002 61.1555381,85.3110239 61.1210292,85.3840009 C56.4312653,96.2610495 55.4339572,98.4955358 50.8339165,98.3113558 C46.2338759,98.1271757 43.514572,88.4073339 44.0184024,82.0618097 C44.3255319,78.1697028 45.874983,73.1308145 45.8197687,72.9952857 C45.7093401,73.1308145 37.4789598,77.9160208 37.4168437,77.8291434 C37.4548036,77.9785726 37.63425,78.1940285 37.7170714,78.4338101 C41.8167326,90.2769352 37.4168437,98.6241144 33.7209371,103.166064 C28.5238919,109.549814 20.1796322,111.975431 17.3119399,111.975431 C14.4442476,111.975431 10.7897517,111.607071 8.05664432,109.21273 C5.32008601,106.818389 5.33388958,101.779501 5.60996104,99.5867158 C6.00336286,97.6093865 7.62528267,90.8955022 16.7114845,84.7793343 C19.9001098,82.6352004 29.5004947,77.1827757 29.6143742,77.2244768 C29.5004947,77.0646225 29.428026,76.9777451 29.3141465,76.9221435 C28.813767,76.4391053 27.9130838,75.7197605 27.2125525,75.1081437 C25.8459988,74.1594427 12.9431091,64.9330644 10.1064749,62.4170953 C-9.21507618,45.2674995 2.69050538,24.7783369 40.1154422,7.42023536 C48.5666797,3.50032774 81.2397366,-7.24466727 91.7304519,12.5564264 L91.7131975,12.542526 Z M28.0959812,82.9514341 C19.0442883,89.4255368 14.2889575,92.6330499 14.2889575,100.969804 C14.2889575,104.30937 20.4453509,107.131148 28.0959812,98.5441872 C36.4678481,89.1475292 32.7719415,80.2443348 32.5959459,80.2304344 C32.6511602,80.2200091 29.169209,82.1799629 28.0959812,82.9514341 L28.0959812,82.9514341 Z M86.364313,86.0060429 C85.4153174,87.0694221 83.2999198,89.5124142 83.3102725,89.5992916 C83.5035225,89.6097169 83.9314333,89.8842494 85.4118665,88.994625 C87.0648443,88.0007477 89.207849,85.863564 90.2120589,84.1607673 C90.6123625,83.0834877 90.8504742,82.0652848 90.8125143,80.835101 C90.6710277,80.835101 87.5341658,84.6924569 86.364313,86.0060429 L86.364313,86.0060429 Z M106.217302,78.9307487 C103.501449,82.8576065 104.005279,84.880112 104.343467,85.0399664 C104.681654,85.1998208 110.782833,82.7081774 110.417039,76.6232853 C110.379079,76.0081935 109.878699,74.4895768 109.719958,74.4895768 C109.719958,74.4895768 108.933155,75.0038909 106.217302,78.9307487 L106.217302,78.9307487 Z M53.3013052,72.3767188 C52.014122,75.2193468 51.0271665,78.5867142 51.1997112,85.0677672 C51.2652782,87.4794834 52.0520818,88.8938472 52.7008497,89.2969583 C54.8921669,90.6661459 62.51519,69.4958647 63.1052928,65.2631984 C63.484891,62.5456738 62.5945606,62.698578 62.0010069,62.7020531 C61.5316855,62.6951029 57.6735869,62.7020531 53.2978543,72.3732437 L53.3013052,72.3767188 Z M171.532357,72.6790521 C171.549612,68.6757421 173.416545,60.2625362 183.834792,59.9880036 C186.864676,59.9880036 193.435177,61.0305322 193.438627,71.1673856 C193.438627,72.0535349 192.67598,74.0065385 189.839346,74.1907186 L176.636228,74.1907186 C176.9123,78.0133235 178.472104,82.3502426 182.937559,82.0479093 C187.403015,81.745576 190.263806,79.2747831 191.040257,79.0245763 C191.816708,78.7778445 193.897596,80.6926221 192.841623,82.3502426 C189.808288,84.7932347 186.45402,85.9747671 182.637332,85.9747671 C173.036947,85.9747671 171.518554,76.7622892 171.535808,72.6790521 L171.532357,72.6790521 Z M188.338207,70.5627189 C188.355462,66.1319723 186.740444,63.9148614 183.538015,63.9148614 C178.337519,63.9148614 176.753559,68.4637613 176.636228,70.5627189 L188.338207,70.5627189 L188.338207,70.5627189 Z M200.040186,50.3168131 C200.040186,45.9277676 207.159379,45.2987753 206.841897,50.3168131 C206.524414,55.3348509 200.040186,54.0247399 200.040186,50.3168131 L200.040186,50.3168131 Z M197.04136,64.2171947 C195.543672,64.0052139 196.185538,61.1278349 196.741132,60.8915284 C198.280231,60.328563 201.085807,60.0192795 205.144057,59.9845285 C205.944664,59.9845285 206.310459,60.6969231 206.344968,62.1008616 L206.344968,82.0444342 L210.544705,82.0444342 C211.476446,82.5170472 211.020928,84.9982653 210.844933,85.3701005 C210.527451,85.5369051 210.310044,85.6724338 210.244477,85.6724338 L197.641815,85.6724338 C196.741132,85.3701005 196.741132,84.0321888 197.04136,83.1460394 C197.341588,82.2598901 198.242271,82.0479093 198.242271,82.0479093 C201.544776,82.2320893 201.530972,81.2451622 201.544776,81.1409094 L201.544776,64.2171947 L197.044811,64.2171947 L197.04136,64.2171947 Z M223.147367,82.0444342 C228.247787,81.6760741 228.247787,79.1184038 228.247787,78.7187679 C228.251238,75.2297721 221.939554,74.7953852 218.643951,73.2802436 C215.348348,71.765102 213.843759,69.7113206 213.843759,66.9347193 C213.843759,64.2137196 215.344898,60.5092679 222.847139,59.9845285 C225.663068,59.7864481 232.39231,60.7594748 232.450975,65.1207195 C232.130042,68.1371024 229.955979,68.453336 228.851694,68.4463858 C224.831403,67.9633476 225.618207,64.5021526 225.849416,63.6125281 L223.147367,63.6125281 C220.490179,63.6125281 219.586045,64.1094668 218.647402,66.3821792 C218.074554,69.8920255 223.074898,70.1735083 226.035765,71.3897917 C227.826778,72.1230368 232.751203,73.624278 232.751203,78.7257181 C232.751203,83.8271581 228.251238,85.9782422 223.747822,85.9782422 C219.247858,85.9782422 219.085666,85.6863342 217.446491,85.0712423 C211.02783,82.6595261 213.543531,77.3148293 216.846036,77.5163849 C220.148541,77.7179404 220.428063,79.7647716 220.445318,80.5397179 C220.428063,81.380691 220.386652,81.9019553 220.445318,82.0513844 L223.147367,82.0513844 L223.147367,82.0444342 Z M235.449801,64.2171947 C235.449801,61.7012257 235.75348,60.4189154 236.350484,60.2903369 C236.350484,60.2903369 240.550222,60.58572 240.550222,59.383337 L241.751132,53.9448127 C241.954735,52.8918588 243.024512,52.4331462 245.053637,52.4331462 L245.053637,60.2903369 L251.655196,60.2903369 C252.55933,60.2903369 252.569683,64.2171947 251.05474,64.2171947 L245.053637,64.2171947 L245.053637,79.0245763 C244.970816,80.9115531 245.33661,81.4432427 246.554776,81.745576 C247.772941,82.0479093 249.557053,81.1409094 250.454285,81.1409094 C251.354968,81.1409094 252.448901,83.3024187 251.354968,84.1642424 C249.177455,85.4083265 247.148329,85.9782422 245.353865,85.9782422 C241.840856,85.9782422 240.149918,83.6673037 240.253445,79.0280514 L240.253445,64.2206698 L235.453252,64.2206698 L235.449801,64.2171947 Z M298.76679,60.2868618 C301.658638,61.4753445 301.838085,66.3126773 298.449308,67.0702481 C295.060531,67.8278189 294.297883,64.8253364 294.266825,63.9148614 C291.73732,65.3222751 289.76686,69.0510524 289.76686,69.0510524 L289.76686,82.0444342 L295.767964,82.0444342 C296.402928,81.8289783 296.968875,85.4569779 295.467736,85.6689587 L280.76348,85.6689587 C279.738565,85.3666254 280.163025,82.2147139 281.18794,82.2147139 C284.607775,82.2147139 284.963217,81.7212503 284.963217,81.1339592 L284.963217,64.5125778 L280.463252,64.5125778 C279.017328,64.1824438 279.607431,60.8880533 280.163025,60.8880533 C281.087864,60.5926702 289.166405,59.1400803 289.166405,60.5544442 C289.166405,61.968808 289.1457,63.8384093 289.166405,63.9079112 C292.034097,61.3363406 295.878392,59.091429 298.770241,60.2833867 L298.76679,60.2868618 Z M254.95425,72.6790521 C254.971504,68.6757421 256.838437,60.2625362 267.256684,59.9880036 C270.286568,59.9880036 276.857069,61.0305322 276.86052,71.1673856 C276.86052,72.0535349 276.097872,74.0065385 273.261238,74.1907186 L260.058121,74.1907186 C260.334192,78.0133235 261.893996,82.3502426 266.359452,82.0479093 C270.824908,81.745576 273.685698,79.2747831 274.462149,79.0245763 C275.2386,78.7778445 277.319489,80.6926221 276.263515,82.3502426 C273.23018,84.7932347 269.875912,85.9747671 266.059224,85.9747671 C256.458839,85.9747671 254.940446,76.7622892 254.957701,72.6790521 L254.95425,72.6790521 Z M271.7601,70.5627189 C271.777354,66.1319723 270.162336,63.9148614 266.959907,63.9148614 C261.759411,63.9148614 260.175451,68.4637613 260.058121,70.5627189 L271.7601,70.5627189 L271.7601,70.5627189 Z" id="Shape" sketch:type="MSShapeGroup"></path>
        </g>
    </g>
</svg>