<?xml version="1.0" encoding="UTF-8" standalone="no"?>
<svg width="366px" height="137px" viewBox="0 0 366 137" version="1.1" xmlns="http://www.w3.org/2000/svg" xmlns:xlink="http://www.w3.org/1999/xlink" xmlns:sketch="http://www.bohemiancoding.com/sketch/ns">
    <!-- Generator: Sketch 3.2.2 (9983) - http://www.bohemiancoding.com/sketch -->
    <title>structure</title>
    <desc>Created with Sketch.</desc>
    <defs></defs>
    <g id="Page-1" stroke="none" stroke-width="1" fill="none" fill-rule="evenodd" sketch:type="MSPage">
        <g id="structure" sketch:type="MSLayerGroup">
            <g id="Page-1" sketch:type="MSShapeGroup">
                <g id="Oval-1-+-Oval-2-+-Oval-3-+-Group-+-&lt;ARTICLE&gt;">
                    <g id="Oval-1-+-Oval-2-+-Oval-3-+-Group" transform="translate(239.836177, 12.454545)">
                        <g id="Oval-1-+-Oval-2-+-Oval-3" transform="translate(0.319831, 0.097420)">
                            <ellipse id="Oval-1" stroke="#8DB57B" fill="#8DB67B" cx="37.7822329" cy="37.8921482" rx="37.7822329" ry="37.8921482"></ellipse>
                            <ellipse id="Oval-2" stroke="#628676" fill="#628676" cx="86.8126114" cy="61.6108974" rx="37.7822329" ry="37.8921482"></ellipse>
                            <ellipse id="Oval-3" stroke="#63ACB5" fill="#63ADB5" cx="37.7822329" cy="80.1230919" rx="37.7822329" ry="37.8921482"></ellipse>
                        </g>
                    </g>
                    <path d="M5.77605461,9.3434 L11.3534949,11.2838182 L11.3534949,15.8509 L0.198614334,11.5204545 L0.198614334,7.28466364 L11.3534949,2.95421818 L11.3534949,7.40298182 L5.77605461,9.3434 L5.77605461,9.3434 Z M24.691884,14.7150455 L19.3280478,14.7150455 L18.5923003,17.4363636 L13.2759317,17.4363636 L18.7821706,0.540527273 L25.4276314,0.540527273 L30.8864027,17.4363636 L25.4513652,17.4363636 L24.691884,14.7150455 L24.691884,14.7150455 Z M20.4672696,10.5265818 L23.5526621,10.5265818 L22.0099659,4.9183 L20.4672696,10.5265818 L20.4672696,10.5265818 Z M46.9304437,6.07781818 C46.9304437,7.21367841 46.7128861,8.1838778 46.2777645,8.98844545 C45.8426429,9.79301311 45.2295261,10.4477005 44.4383959,10.9525273 L47.9509966,17.4363636 L42.4447577,17.4363636 L39.7391058,12.0173909 L37.8404027,12.0173909 L37.8404027,17.4363636 L32.7851058,17.4363636 L32.7851058,0.540527273 L40.0476451,0.540527273 C41.3450986,0.540527273 42.4328864,0.686451571 43.311041,0.978304545 C44.1891955,1.27015752 44.8972465,1.66454752 45.435215,2.16148636 C45.9731836,2.65842521 46.356876,3.24606631 46.5863038,3.92442727 C46.8157315,4.60278824 46.9304437,5.32057803 46.9304437,6.07781818 L46.9304437,6.07781818 L46.9304437,6.07781818 Z M37.8404027,8.11289091 L39.6441706,8.11289091 C40.4511235,8.11289091 41.0246843,7.96302271 41.3648703,7.66328182 C41.7050563,7.36354093 41.8751468,6.91393633 41.8751468,6.31445455 C41.8751468,5.71497276 41.7050563,5.26536817 41.3648703,4.96562727 C41.0246843,4.66588638 40.4511235,4.51601818 39.6441706,4.51601818 L37.8404027,4.51601818 L37.8404027,8.11289091 L37.8404027,8.11289091 Z M53.1486962,5.15493636 L48.4256724,5.15493636 L48.4256724,0.540527273 L63.2592901,0.540527273 L63.2592901,5.15493636 L58.5362662,5.15493636 L58.5362662,17.4363636 L53.1486962,17.4363636 L53.1486962,5.15493636 L53.1486962,5.15493636 Z M65.2766621,0.540527273 L70.6642321,0.540527273 L70.6642321,17.4363636 L65.2766621,17.4363636 L65.2766621,0.540527273 L65.2766621,0.540527273 Z M88.8917816,10.9761909 C88.8443138,11.9542928 88.6544453,12.8613898 88.3221706,13.6975091 C87.9898959,14.5336284 87.5033582,15.259306 86.8625427,15.8745636 C86.2217272,16.4898213 85.4226976,16.974921 84.46543,17.3298773 C83.5081624,17.6848336 82.3808188,17.8623091 81.0833652,17.8623091 C79.6435082,17.8623091 78.4014523,17.6493385 77.3571604,17.2233909 C76.3128685,16.7974433 75.4545051,16.2019144 74.7820444,15.4367864 C74.1095837,14.6716583 73.6111791,13.7566735 73.2868157,12.6918045 C72.9624523,11.6269356 72.800273,10.4555973 72.800273,9.17775455 C72.800273,7.89991179 72.9624523,6.70885401 73.2868157,5.60454545 C73.6111791,4.5002369 74.1174949,3.54186921 74.8057782,2.72941364 C75.4940615,1.91695806 76.3722029,1.27804627 77.4402287,0.812659091 C78.5082545,0.347271916 79.7859107,0.114581818 81.2732355,0.114581818 C83.5200454,0.114581818 85.228861,0.643064412 86.3997338,1.70004545 C87.5706065,2.7570265 88.3142578,4.26359628 88.6307099,6.2198 L83.2668737,6.81139091 C83.2035833,6.51165002 83.1205159,6.23557702 83.0176689,5.98316364 C82.914822,5.73075025 82.7803319,5.50989186 82.6141945,5.32058182 C82.4480572,5.13127178 82.2384108,4.98534748 81.9852491,4.88280455 C81.7320875,4.78026161 81.4235513,4.72899091 81.0596314,4.72899091 C80.2052107,4.72899091 79.5644049,5.06816631 79.1371945,5.74652727 C78.7099842,6.42488824 78.4963823,7.48974123 78.4963823,8.94111818 C78.4963823,9.84034086 78.5715385,10.5699624 78.7218532,11.1300045 C78.872168,11.6900467 79.0739032,12.1278196 79.3270648,12.4433364 C79.5802265,12.7588531 79.8729403,12.9718237 80.205215,13.0822545 C80.5374897,13.1926854 80.8776706,13.2479 81.2257679,13.2479 C81.8744947,13.2479 82.3966328,13.0625367 82.792198,12.6918045 C83.1877631,12.3210724 83.4330098,11.7492069 83.5279454,10.9761909 L88.8917816,10.9761909 L88.8917816,10.9761909 Z M90.7904846,0.540527273 L96.1780546,0.540527273 L96.1780546,12.8219545 L103.274457,12.8219545 L102.823515,17.4363636 L90.7904846,17.4363636 L90.7904846,0.540527273 L90.7904846,0.540527273 Z M105.17316,0.540527273 L117.775802,0.540527273 L117.775802,4.68166364 L110.465795,4.68166364 L110.465795,6.83505455 L117.301126,6.83505455 L117.301126,10.9761909 L110.465795,10.9761909 L110.465795,13.2952273 L118.250478,13.2952273 L117.847003,17.4363636 L105.17316,17.4363636 L105.17316,0.540527273 L105.17316,0.540527273 Z M120.291584,11.4021364 L125.869024,9.46171818 L120.291584,7.5213 L120.291584,2.95421818 L131.446464,7.28466364 L131.446464,11.5204545 L120.291584,15.8509 L120.291584,11.4021364 L120.291584,11.4021364 Z M25.7124369,39.2343091 L31.2898771,41.1747273 L31.2898771,45.7418091 L20.1349966,41.4113636 L20.1349966,37.1755727 L31.2898771,32.8451273 L31.2898771,37.2938909 L25.7124369,39.2343091 L25.7124369,39.2343091 Z M39.4305666,42.8311818 L41.3055358,42.8311818 C42.3972956,42.8311818 43.2002807,42.4920064 43.7145154,41.8136455 C44.22875,41.1352845 44.4858635,40.1414217 44.4858635,38.8320273 C44.5016861,37.601512 44.2643506,36.6470882 43.7738498,35.9687273 C43.2833491,35.2903663 42.460586,34.9433031 41.3055358,34.9275273 L39.4305666,34.9275273 L39.4305666,42.8311818 L39.4305666,42.8311818 Z M34.1616655,47.3272727 L34.1616655,30.4314364 L41.1156655,30.4314364 C44.0744926,30.4472122 46.2856685,31.165002 47.7492594,32.5848273 C49.2128503,34.0046526 49.9446348,36.0633683 49.9446348,38.7610364 C49.9288122,41.5375836 49.1693386,43.6594018 47.6661911,45.1265545 C46.1630437,46.5937073 43.979557,47.3272727 41.1156655,47.3272727 L34.1616655,47.3272727 L34.1616655,47.3272727 Z M52.0806758,30.4314364 L57.4682457,30.4314364 L57.4682457,47.3272727 L52.0806758,47.3272727 L52.0806758,30.4314364 L52.0806758,30.4314364 Z M65.1579932,30.4314364 L67.9348464,41.6243364 L70.7116997,30.4314364 L76.4078089,30.4314364 L71.2575768,47.3272727 L64.4697133,47.3272727 L59.3669488,30.4314364 L65.1579932,30.4314364 L65.1579932,30.4314364 Z M78.3302457,41.2930455 L83.907686,39.3526273 L78.3302457,37.4122091 L78.3302457,32.8451273 L89.4851263,37.1755727 L89.4851263,41.4113636 L78.3302457,45.7418091 L78.3302457,41.2930455 L78.3302457,41.2930455 Z M97.9580887,39.2343091 L103.535529,41.1747273 L103.535529,45.7418091 L92.3806485,41.4113636 L92.3806485,37.1755727 L103.535529,32.8451273 L103.535529,37.2938909 L97.9580887,39.2343091 L97.9580887,39.2343091 Z M110.228457,47.3272727 L105.220628,47.3272727 L110.726867,29.9581636 L115.75843,29.9581636 L110.228457,47.3272727 L110.228457,47.3272727 Z M122.688696,42.8311818 L124.563666,42.8311818 C125.655425,42.8311818 126.45841,42.4920064 126.972645,41.8136455 C127.48688,41.1352845 127.743993,40.1414217 127.743993,38.8320273 C127.759816,37.601512 127.52248,36.6470882 127.03198,35.9687273 C126.541479,35.2903663 125.718716,34.9433031 124.563666,34.9275273 L122.688696,34.9275273 L122.688696,42.8311818 L122.688696,42.8311818 Z M117.419795,47.3272727 L117.419795,30.4314364 L124.373795,30.4314364 C127.332622,30.4472122 129.543798,31.165002 131.007389,32.5848273 C132.47098,34.0046526 133.202765,36.0633683 133.202765,38.7610364 C133.186942,41.5375836 132.427468,43.6594018 130.924321,45.1265545 C129.421173,46.5937073 127.237687,47.3272727 124.373795,47.3272727 L117.419795,47.3272727 L117.419795,47.3272727 Z M135.338805,30.4314364 L140.726375,30.4314364 L140.726375,47.3272727 L135.338805,47.3272727 L135.338805,30.4314364 L135.338805,30.4314364 Z M148.416123,30.4314364 L151.192976,41.6243364 L153.969829,30.4314364 L159.665939,30.4314364 L154.515706,47.3272727 L147.727843,47.3272727 L142.625078,30.4314364 L148.416123,30.4314364 L148.416123,30.4314364 Z M161.588375,41.2930455 L167.165816,39.3526273 L161.588375,37.4122091 L161.588375,32.8451273 L172.743256,37.1755727 L172.743256,41.4113636 L161.588375,45.7418091 L161.588375,41.2930455 L161.588375,41.2930455 Z M25.7124369,69.1252182 L31.2898771,71.0656364 L31.2898771,75.6327182 L20.1349966,71.3022727 L20.1349966,67.0664818 L31.2898771,62.7360364 L31.2898771,67.1848 L25.7124369,69.1252182 L25.7124369,69.1252182 Z M34.1616655,60.3223455 L39.5492355,60.3223455 L39.5492355,66.1436 L44.0586553,66.1436 L44.0586553,60.3223455 L49.4462253,60.3223455 L49.4462253,77.2181818 L44.0586553,77.2181818 L44.0586553,70.8763273 L39.5492355,70.8763273 L39.5492355,77.2181818 L34.1616655,77.2181818 L34.1616655,60.3223455 L34.1616655,60.3223455 Z M52.2942799,60.3223455 L64.8969215,60.3223455 L64.8969215,64.4634818 L57.5869147,64.4634818 L57.5869147,66.6168727 L64.4222457,66.6168727 L64.4222457,70.7580091 L57.5869147,70.7580091 L57.5869147,73.0770455 L65.3715973,73.0770455 L64.9681229,77.2181818 L52.2942799,77.2181818 L52.2942799,60.3223455 L52.2942799,60.3223455 Z M78.2115768,74.4968636 L72.8477406,74.4968636 L72.1119932,77.2181818 L66.7956246,77.2181818 L72.3018635,60.3223455 L78.9473242,60.3223455 L84.4060956,77.2181818 L78.971058,77.2181818 L78.2115768,74.4968636 L78.2115768,74.4968636 Z M73.9869625,70.3084 L77.0723549,70.3084 L75.5296587,64.7001182 L73.9869625,70.3084 L73.9869625,70.3084 Z M91.5736997,72.7220909 L93.4486689,72.7220909 C94.5404287,72.7220909 95.3434138,72.3829155 95.8576485,71.7045545 C96.3718831,71.0261936 96.6289966,70.0323308 96.6289966,68.7229364 C96.6448192,67.4924211 96.4074837,66.5379973 95.9169829,65.8596364 C95.4264822,65.1812754 94.6037191,64.8342122 93.4486689,64.8184364 L91.5736997,64.8184364 L91.5736997,72.7220909 L91.5736997,72.7220909 Z M86.3047986,77.2181818 L86.3047986,60.3223455 L93.2587986,60.3223455 C96.2176257,60.3381213 98.4288016,61.0559111 99.8923925,62.4757364 C101.355983,63.8955616 102.087768,65.9542774 102.087768,68.6519455 C102.071945,71.4284927 101.312472,73.5503108 99.8093242,75.0174636 C98.3061768,76.4846164 96.1226901,77.2181818 93.2587986,77.2181818 L86.3047986,77.2181818 L86.3047986,77.2181818 Z M104.223809,60.3223455 L116.826451,60.3223455 L116.826451,64.4634818 L109.516444,64.4634818 L109.516444,66.6168727 L116.351775,66.6168727 L116.351775,70.7580091 L109.516444,70.7580091 L109.516444,73.0770455 L117.301126,73.0770455 L116.897652,77.2181818 L104.223809,77.2181818 L104.223809,60.3223455 L104.223809,60.3223455 Z M133.463836,65.8596364 C133.463836,66.9954966 133.246279,67.965696 132.811157,68.7702636 C132.376035,69.5748313 131.762919,70.2295187 130.971788,70.7343455 L134.484389,77.2181818 L128.97815,77.2181818 L126.272498,71.7992091 L124.373795,71.7992091 L124.373795,77.2181818 L119.318498,77.2181818 L119.318498,60.3223455 L126.581038,60.3223455 C127.878491,60.3223455 128.966279,60.4682698 129.844433,60.7601227 C130.722588,61.0519757 131.430639,61.4463657 131.968608,61.9433045 C132.506576,62.4402434 132.890268,63.0278845 133.119696,63.7062455 C133.349124,64.3846064 133.463836,65.1023962 133.463836,65.8596364 L133.463836,65.8596364 L133.463836,65.8596364 Z M124.373795,67.8947091 L126.177563,67.8947091 C126.984516,67.8947091 127.558077,67.7448409 127.898263,67.4451 C128.238449,67.1453591 128.408539,66.6957545 128.408539,66.0962727 C128.408539,65.4967909 128.238449,65.0471863 127.898263,64.7474455 C127.558077,64.4477046 126.984516,64.2978364 126.177563,64.2978364 L124.373795,64.2978364 L124.373795,67.8947091 L124.373795,67.8947091 Z M136.050819,71.1839545 L141.628259,69.2435364 L136.050819,67.3031182 L136.050819,62.7360364 L147.2057,67.0664818 L147.2057,71.3022727 L136.050819,75.6327182 L136.050819,71.1839545 L136.050819,71.1839545 Z M39.6679044,102.021409 L44.3909283,102.021409 L44.3909283,107.109091 L39.6679044,107.109091 L39.6679044,102.021409 L39.6679044,102.021409 Z M46.788041,102.021409 L51.5110648,102.021409 L51.5110648,107.109091 L46.788041,107.109091 L46.788041,102.021409 L46.788041,102.021409 Z M53.9081775,102.021409 L58.6312014,102.021409 L58.6312014,107.109091 L53.9081775,107.109091 L53.9081775,102.021409 L53.9081775,102.021409 Z M61.028314,102.021409 L65.7513379,102.021409 L65.7513379,107.109091 L61.028314,107.109091 L61.028314,102.021409 L61.028314,102.021409 Z M39.6679044,131.912318 L44.3909283,131.912318 L44.3909283,137 L39.6679044,137 L39.6679044,131.912318 L39.6679044,131.912318 Z M46.788041,131.912318 L51.5110648,131.912318 L51.5110648,137 L46.788041,137 L46.788041,131.912318 L46.788041,131.912318 Z M53.9081775,131.912318 L58.6312014,131.912318 L58.6312014,137 L53.9081775,137 L53.9081775,131.912318 L53.9081775,131.912318 Z M61.028314,131.912318 L65.7513379,131.912318 L65.7513379,137 L61.028314,137 L61.028314,131.912318 L61.028314,131.912318 Z" id="&lt;ARTICLE&gt;" fill="#676767"></path>
                </g>
            </g>
        </g>
    </g>
</svg>